HIERARCHY
ROOT Hips
{
	OFFSET 0.00000 0.00000 0.00000
	CHANNELS 6 Xposition Yposition Zposition Zrotation Yrotation Xrotation 
	JOINT LHipJoint
	{
		OFFSET 0 0 0
		CHANNELS 3 Zrotation Yrotation Xrotation
		JOINT LeftUpLeg
		{
			OFFSET 1.44960 -1.75505 0.85172
			CHANNELS 3 Zrotation Yrotation Xrotation
			JOINT LeftLeg
			{
				OFFSET 2.40573 -6.60971 0.00000
				CHANNELS 3 Zrotation Yrotation Xrotation
				JOINT LeftFoot
				{
					OFFSET 2.58773 -7.10974 0.00000
					CHANNELS 3 Zrotation Yrotation Xrotation
					JOINT LeftToeBase
					{
						OFFSET 0.18252 -0.50147 1.77316
						CHANNELS 3 Zrotation Yrotation Xrotation
						End Site
						{
							OFFSET 0.00000 -0.00000 0.92990
						}
					}
				}
			}
		}
	}
	JOINT RHipJoint
	{
		OFFSET 0 0 0
		CHANNELS 3 Zrotation Yrotation Xrotation
		JOINT RightUpLeg
		{
			OFFSET -1.40744 -1.75505 0.85172
			CHANNELS 3 Zrotation Yrotation Xrotation
			JOINT RightLeg
			{
				OFFSET -2.43714 -6.69600 0.00000
				CHANNELS 3 Zrotation Yrotation Xrotation
				JOINT RightFoot
				{
					OFFSET -2.51650 -6.91404 0.00000
					CHANNELS 3 Zrotation Yrotation Xrotation
					JOINT RightToeBase
					{
						OFFSET -0.25383 -0.69740 1.96384
						CHANNELS 3 Zrotation Yrotation Xrotation
						End Site
						{
							OFFSET -0.00000 -0.00000 1.04244
						}
					}
				}
			}
		}
	}
	JOINT LowerBack
	{
		OFFSET 0 0 0
		CHANNELS 3 Zrotation Yrotation Xrotation
		JOINT Spine
		{
			OFFSET 0.00579 2.14458 -0.24367
			CHANNELS 3 Zrotation Yrotation Xrotation
			JOINT Spine1
			{
				OFFSET 0.05899 2.16316 -0.04515
				CHANNELS 3 Zrotation Yrotation Xrotation
				JOINT Neck
				{
					OFFSET 0 0 0
					CHANNELS 3 Zrotation Yrotation Xrotation
					JOINT Neck1
					{
						OFFSET -0.01650 1.59577 0.24841
						CHANNELS 3 Zrotation Yrotation Xrotation
						JOINT Head
						{
							OFFSET -0.01016 1.63072 -0.17782
							CHANNELS 3 Zrotation Yrotation Xrotation
							End Site
							{
								OFFSET -0.00250 1.64111 -0.08717
							}
						}
					}
				}
				JOINT LeftShoulder
				{
					OFFSET 0 0 0
					CHANNELS 3 Zrotation Yrotation Xrotation
					JOINT LeftArm
					{
						OFFSET 3.17745 0.95174 -0.45729
						CHANNELS 3 Zrotation Yrotation Xrotation
						JOINT LeftForeArm
						{
							OFFSET 4.93485 -0.00000 0.00000
							CHANNELS 3 Zrotation Yrotation Xrotation
							JOINT LeftHand
							{
								OFFSET 3.41719 -0.00000 -0.00000
								CHANNELS 3 Zrotation Yrotation Xrotation
								JOINT LeftFingerBase
								{
									OFFSET 0 0 0
									CHANNELS 3 Zrotation Yrotation Xrotation
									JOINT LeftHandIndex1
									{
										OFFSET 0.62410 -0.00000 -0.00000
										CHANNELS 3 Zrotation Yrotation Xrotation
										End Site
										{
											OFFSET 0.50317 -0.00000 -0.00000
										}
									}
								}
								JOINT LThumb
								{
									OFFSET 0 0 0
									CHANNELS 3 Zrotation Yrotation Xrotation
									End Site
									{
										OFFSET 0.51085 -0.00000 0.51085
									}
								}
							}
						}
					}
				}
				JOINT RightShoulder
				{
					OFFSET 0 0 0
					CHANNELS 3 Zrotation Yrotation Xrotation
					JOINT RightArm
					{
						OFFSET -2.87924 1.13038 -0.75204
						CHANNELS 3 Zrotation Yrotation Xrotation
						JOINT RightForeArm
						{
							OFFSET -5.22034 -0.00000 0.00000
							CHANNELS 3 Zrotation Yrotation Xrotation
							JOINT RightHand
							{
								OFFSET -3.41809 -0.00000 -0.00000
								CHANNELS 3 Zrotation Yrotation Xrotation
								JOINT RightFingerBase
								{
									OFFSET 0 0 0
									CHANNELS 3 Zrotation Yrotation Xrotation
									JOINT RightHandIndex1
									{
										OFFSET -0.77534 -0.00000 -0.00000
										CHANNELS 3 Zrotation Yrotation Xrotation
										End Site
										{
											OFFSET -0.62510 -0.00000 -0.00000
										}
									}
								}
								JOINT RThumb
								{
									OFFSET 0 0 0
									CHANNELS 3 Zrotation Yrotation Xrotation
									End Site
									{
										OFFSET -0.63464 -0.00000 0.63464
									}
								}
							}
						}
					}
				}
			}
		}
	}
}
MOTION
Frames: 14
Frame Time: .0083333
0.8489 17.49 -32.707 0 0 0 0 0 0 -21 0 0 0 0 0 0 0 0 0 0 0 0 0 0 21 0 0 0 0 0 0 0 0 0 0 0 0 0 0 0 0 0 0 0 0 0 0 -16 0 0 21 0 0 11 0 0 0 -8 0 0 0 0 0 0 0 0 0 0 0 0 0 0 0 0 0 0 0 0 8 0 0 0 0 0 0 0 0 0 0 0 0 0 0 0 0 0
0.8489 17.4900 -32.7070 -1.3967 3.3540 3.2109 0.0000 0.0000 0.0000 -18.1207 -6.7668 -6.7331 1.8868 8.6263 24.6332 1.2762 -2.5549 -20.6670 0.0341 -1.1920 -3.2773 0.0000 0.0000 0.0000 20.6082 2.3561 -8.6495 -2.1589 -9.1895 26.3898 -1.3952 -3.5144 -23.8211 -0.3650 -3.8807 10.7412 0.1889 -1.2820 3.3970 1.6209 -1.6430 -1.9811 1.6754 -0.7997 -3.9036 -3.4043 -2.5349 -14.0629 3.3556 -3.0900 6.3007 1.3474 -1.4064 4.2655 0.0000 0.0000 0.0000 -92.3944 2.9367 22.6785 16.5578 -26.2712 -3.8896 -0.0000 -0.0000 4.9394 5.3584 42.7672 3.6442 -7.1250 0.0000 -0.0000 -44.3327 67.9076 -26.3453 0.0000 0.0000 0.0000 86.2165 -3.4479 12.1285 -12.5834 20.6738 -2.3041 0.0000 -0.0000 -11.3019 -17.4574 17.9171 -5.5260 7.1250 -0.0000 -0.0000 6.9335 -11.3620 5.4729
0.8535 17.4963 -32.7062 -1.5092 3.5448 3.2144 0.0000 0.0000 0.0000 -17.9871 -6.9728 -6.7278 1.8922 8.6378 24.6687 1.2664 -2.7588 -20.5419 0.0136 -0.7527 -2.0686 0.0000 0.0000 0.0000 20.7285 1.9767 -8.6051 -2.1182 -9.1081 26.1342 -1.3588 -3.6125 -23.5832 -0.2880 -3.4510 9.5371 -0.6140 -1.0275 2.5108 2.2672 -1.3336 -1.4579 2.7429 -0.6306 -2.8382 -3.5063 -2.7893 -13.9354 2.5714 -3.3267 5.6721 1.1071 -1.5735 4.0458 -0.0000 0.0000 0.0000 -93.3402 1.8758 22.8612 16.1553 -25.7307 -3.7131 -0.0000 -0.0000 5.4216 5.3724 41.5152 3.5668 -7.1250 0.0000 -0.0000 -42.1390 67.0284 -24.0537 -0.0000 0.0000 0.0000 85.3114 -2.8795 12.1756 -12.7830 20.9684 -2.3751 0.0000 -0.0000 -11.5143 -17.8191 16.9749 -5.3611 7.1250 -0.0000 -0.0000 6.6569 -12.2923 5.1226
0.8577 17.4946 -32.7095 -1.4103 3.7212 3.2872 0.0000 0.0000 0.0000 -18.0937 -6.9286 -6.9178 1.9090 8.6740 24.7806 1.2673 -2.7862 -20.5447 0.0467 -1.3953 -3.8372 0.0000 0.0000 0.0000 20.6047 1.9049 -8.5981 -2.0893 -9.0498 25.9511 -1.3611 -3.7046 -23.6479 -0.3165 -3.6162 9.9994 -0.4785 -0.9309 2.6360 1.9689 -1.2026 -1.7603 2.3600 -0.5655 -3.2362 -3.3572 -2.7479 -13.5687 2.8285 -3.3439 6.1522 1.1627 -1.5664 4.1383 -0.0000 0.0000 0.0000 -92.8346 2.4747 23.3922 16.2352 -25.8385 -3.7479 -0.0000 -0.0000 5.2175 4.9154 41.8497 3.2839 -7.1250 0.0000 -0.0000 -43.1499 67.1284 -24.8120 -0.0000 0.0000 0.0000 85.9054 -3.4205 11.7057 -12.8954 21.1337 -2.4154 0.0000 -0.0000 -11.6505 -17.4154 17.0708 -5.2610 7.1250 -0.0000 -0.0000 6.9282 -12.2379 5.3424
0.8616 17.4973 -32.7102 -1.7992 3.8964 3.2252 0.0000 0.0000 0.0000 -17.6687 -7.1179 -6.8970 1.9235 8.7048 24.8762 1.2723 -2.8412 -20.5752 0.0276 -1.0731 -2.9501 0.0000 0.0000 0.0000 21.0500 1.8422 -8.4450 -2.0561 -8.9819 25.7387 -1.3391 -3.7262 -23.4839 -0.3545 -3.8252 10.5855 -0.0836 -0.5972 2.5379 1.8603 -0.7425 -1.9059 2.0020 -0.3446 -3.3575 -2.4949 -3.0681 -12.5166 2.3564 -3.8959 5.4620 0.9493 -1.8603 4.1752 0.0000 -0.0000 0.0000 -92.3686 2.8558 24.4432 16.2027 -25.7947 -3.7337 -0.0000 -0.0000 5.2380 5.6034 41.8637 3.7461 -7.1250 0.0000 -0.0000 -42.5020 67.3486 -24.5884 0.0000 -0.0000 0.0000 86.4729 -3.8187 10.4756 -12.9038 21.1461 -2.4185 0.0000 -0.0000 -11.1024 -17.1843 17.5868 -5.3382 7.1250 -0.0000 -0.0000 7.1003 -11.7324 5.5520
0.8727 17.4974 -32.7105 -1.6774 3.9552 3.3296 0.0000 0.0000 0.0000 -17.8636 -7.2887 -6.9878 1.9339 8.7270 24.9450 1.2691 -2.6749 -20.5820 0.0439 -1.3520 -3.7180 0.0000 0.0000 0.0000 20.8779 1.9351 -8.4424 -2.0356 -8.9398 25.6071 -1.3329 -4.0000 -23.5770 -0.3146 -3.6055 9.9694 -0.2740 -0.6901 2.2753 2.0303 -0.8752 -1.6503 2.2837 -0.4088 -2.9357 -2.7650 -2.8396 -13.7863 2.2022 -3.5115 6.5250 0.8570 -1.6687 4.2709 0.0000 -0.0000 0.0000 -92.7462 2.3239 23.7112 16.0417 -25.5771 -3.6639 -0.0000 -0.0000 5.5212 5.2514 40.6031 3.4232 -7.1250 0.0000 -0.0000 -40.7788 66.3278 -22.5388 0.0000 -0.0000 0.0000 86.0670 -3.0844 11.0282 -12.8216 21.0252 -2.3889 0.0000 -0.0000 -11.2941 -16.8986 17.5023 -5.2204 7.1250 -0.0000 -0.0000 7.2856 -11.8508 5.6814
0.8761 17.5031 -32.7078 -1.8698 4.0449 3.2907 0.0000 0.0000 0.0000 -17.6502 -7.3621 -6.9941 1.9500 8.7612 25.0513 1.2805 -2.9022 -20.6320 0.0372 -1.2442 -3.4209 0.0000 0.0000 0.0000 21.0830 1.8223 -8.3243 -2.0072 -8.8810 25.4238 -1.3277 -4.0079 -23.5397 -0.3210 -3.6421 10.0718 -0.1776 -0.6795 2.1236 2.1982 -0.8559 -1.5712 2.3983 -0.4010 -2.7684 -2.4701 -2.8941 -13.4696 1.6167 -3.5800 5.9449 0.6325 -1.7320 4.0261 0.0000 -0.0000 0.0000 -92.9783 2.2186 23.6171 15.9773 -25.4899 -3.6362 -0.0000 -0.0000 5.5855 4.9111 41.4654 3.2564 -7.1250 0.0000 -0.0000 -42.5081 66.8532 -24.1324 0.0000 -0.0000 0.0000 85.8396 -2.9523 11.6224 -12.8196 21.0223 -2.3882 0.0000 -0.0000 -11.6066 -17.6370 17.4192 -5.4368 7.1250 -0.0000 -0.0000 6.7949 -11.8544 5.2924
0.8829 17.4995 -32.7062 -2.0275 4.0894 3.3353 0.0000 0.0000 0.0000 -17.5003 -7.3395 -7.1022 1.9607 8.7837 25.1209 1.2791 -2.7780 -20.6447 0.0370 -1.2420 -3.4150 0.0000 0.0000 0.0000 21.1832 1.5203 -8.4429 -1.9858 -8.8365 25.2853 -1.3120 -3.8294 -23.3200 -0.3134 -3.5987 9.9502 -0.0635 -0.5014 1.7416 2.1755 -0.6170 -1.6849 2.2966 -0.2840 -2.6819 -2.5059 -2.9270 -12.5887 1.7567 -3.6541 5.7441 0.7651 -1.7719 4.2687 0.0000 -0.0000 0.0000 -92.9303 2.4792 23.4990 15.7946 -25.2414 -3.5579 -0.0000 -0.0000 6.0949 4.8667 41.2128 3.2108 -7.1250 0.0000 -0.0000 -42.1355 66.6582 -23.7090 0.0000 -0.0000 0.0000 86.0209 -3.3541 11.2513 -12.9502 21.2142 -2.4352 0.0000 -0.0000 -11.8677 -16.7812 17.7996 -5.2669 7.1250 -0.0000 -0.0000 7.3736 -11.5588 5.7960
0.8820 17.5070 -32.7113 -2.1047 4.2288 3.4131 0.0000 0.0000 0.0000 -17.3768 -7.4843 -7.2350 1.9699 8.8032 25.1816 1.2810 -2.9443 -20.6275 0.0249 -1.0192 -2.8017 0.0000 0.0000 0.0000 21.3098 1.5253 -8.4241 -1.9615 -8.7855 25.1266 -1.2998 -3.8816 -23.2483 -0.3043 -3.5464 9.8040 0.1659 -0.4908 2.0074 2.0436 -0.5931 -1.8223 2.0354 -0.2759 -2.9777 -2.2277 -2.9144 -13.2135 1.7688 -3.6820 6.7461 0.6303 -1.7678 4.2328 0.0000 0.0000 0.0000 -92.5795 2.6299 23.7786 15.8696 -25.3435 -3.5900 -0.0000 -0.0000 5.6026 4.6904 41.4252 3.1073 -7.1250 0.0000 -0.0000 -42.6571 66.7580 -24.1407 0.0000 0.0000 0.0000 86.3387 -3.3814 11.4005 -12.9975 21.2836 -2.4524 0.0000 -0.0000 -11.7474 -17.2606 16.9927 -5.1885 7.1250 -0.0000 -0.0000 7.0281 -12.3351 5.4063
0.8779 17.5046 -32.7149 -2.3773 4.1354 3.3875 0.0000 0.0000 0.0000 -17.0710 -7.3892 -7.2962 1.9794 8.8230 25.2433 1.2770 -2.7810 -20.6264 0.0415 -1.3143 -3.6141 0.0000 0.0000 0.0000 21.6108 1.6631 -8.3400 -1.9429 -8.7462 25.0044 -1.2846 -4.0637 -23.2214 -0.3223 -3.6488 10.0908 0.2788 -0.4646 2.3014 2.2098 -0.5410 -2.0087 2.1466 -0.2479 -3.3376 -2.3650 -2.9082 -13.1671 1.8122 -3.6580 6.9466 0.6665 -1.7572 4.2901 0.0000 0.0000 0.0000 -92.7336 2.7572 23.4078 15.6607 -25.0585 -3.5010 -0.0000 -0.0000 5.9794 5.0756 42.0756 3.4061 -7.1250 0.0000 -0.0000 -43.3819 67.3372 -25.1628 0.0000 0.0000 0.0000 86.2446 -3.6405 11.5740 -13.0629 21.3793 -2.4762 0.0000 -0.0000 -11.6509 -16.3753 17.4326 -5.0309 7.1250 -0.0000 -0.0000 7.6287 -11.9788 5.9334
0.8865 17.5104 -32.7153 -2.3535 4.2808 3.4107 0.0000 0.0000 0.0000 -17.1178 -7.6366 -7.2650 1.9834 8.8315 25.2695 1.2774 -2.8746 -20.6114 0.0267 -1.0553 -2.9010 0.0000 0.0000 0.0000 21.5578 1.5714 -8.3150 -1.9293 -8.7172 24.9147 -1.2912 -3.9283 -23.2035 -0.3583 -3.8453 10.6418 0.1220 -0.4925 1.7448 2.3774 -0.5949 -1.6570 2.3995 -0.2748 -2.6558 -2.5863 -2.8823 -13.4296 1.8054 -3.5753 6.8522 0.7034 -1.7215 4.3053 0.0000 -0.0000 0.0000 -93.0197 2.1946 23.3313 15.5282 -24.8768 -3.4451 -0.0000 -0.0000 6.0944 5.4542 41.3110 3.6067 -7.1250 0.0000 -0.0000 -41.7195 66.9058 -23.6676 0.0000 -0.0000 0.0000 85.9366 -3.0111 11.5589 -13.0924 21.4225 -2.4869 0.0000 -0.0000 -11.5616 -15.7248 17.4029 -4.8135 7.1250 -0.0000 -0.0000 8.0573 -12.0775 6.2568
0.8878 17.5074 -32.7191 -2.2948 4.5061 3.4214 0.0000 0.0000 0.0000 -17.1604 -7.7707 -7.2993 1.9903 8.8458 25.3142 1.2827 -3.0035 -20.6303 0.0221 -0.9603 -2.6395 0.0000 0.0000 0.0000 21.5201 1.4691 -8.3234 -1.9216 -8.7009 24.8640 -1.2784 -4.2309 -23.2616 -0.3106 -3.5828 9.9057 0.0333 -0.5588 1.8170 2.3971 -0.6845 -1.6659 2.4743 -0.3173 -2.7008 -2.3905 -2.8035 -13.9379 1.4611 -3.4622 7.3154 0.5648 -1.6785 4.5183 0.0000 -0.0000 0.0000 -93.0404 2.2579 23.1410 15.4738 -24.8021 -3.4222 -0.0000 -0.0000 6.2162 5.1185 40.6714 3.3409 -7.1250 0.0000 -0.0000 -41.0178 66.3387 -22.6999 0.0000 -0.0000 0.0000 85.9122 -2.8308 11.4719 -13.1024 21.4371 -2.4906 0.0000 -0.0000 -11.3927 -14.4633 17.3211 -4.3913 7.1250 -0.0000 -0.0000 8.8883 -12.2876 6.8783
0.8892 17.5110 -32.7183 -2.2692 4.4748 3.3780 0.0000 0.0000 0.0000 -17.2082 -7.6583 -7.2970 1.9909 8.8470 25.3179 1.2730 -3.0115 -20.5481 0.0236 -0.9920 -2.7269 0.0000 0.0000 0.0000 21.4646 1.4782 -8.2309 -1.9181 -8.6935 24.8410 -1.3017 -3.8612 -23.2533 -0.3942 -4.0316 11.1656 -0.0310 -0.4948 2.0893 2.3885 -0.5933 -1.8814 2.5038 -0.2667 -3.0801 -2.2748 -2.7148 -14.0338 1.3444 -3.3561 7.8532 0.5138 -1.6299 4.6948 -0.0000 -0.0000 0.0000 -93.1114 2.7465 22.8313 15.4845 -24.8167 -3.4267 -0.0000 -0.0000 6.5200 4.9643 40.6591 3.2392 -7.1250 0.0000 -0.0000 -41.1508 66.2841 -22.7345 -0.0000 -0.0000 0.0000 85.9246 -3.2587 11.9138 -13.2978 21.7220 -2.5625 0.0000 -0.0000 -11.5271 -13.3646 16.7151 -3.9090 7.1250 -0.0000 -0.0000 9.6073 -13.0022 7.3052
0.8945 17.5030 -32.7270 -2.3880 4.6071 3.3590 0.0000 0.0000 0.0000 -17.0951 -7.7560 -7.3048 1.9984 8.8628 25.3671 1.2732 -2.8966 -20.5719 0.0346 -1.2011 -3.3023 0.0000 0.0000 0.0000 21.5687 1.1957 -8.3785 -1.9193 -8.6960 24.8488 -1.2752 -4.0775 -23.1524 -0.2818 -3.4144 9.4346 0.1800 -0.5020 2.0947 2.3615 -0.5961 -1.8783 2.3574 -0.2731 -3.0820 -2.1731 -2.7322 -13.8886 1.3485 -3.4023 7.8297 0.4970 -1.6499 4.6632 -0.0000 0.0000 0.0000 -92.8729 3.0587 23.2483 15.6879 -25.0956 -3.5125 -0.0000 -0.0000 5.9293 4.5168 40.8731 2.9593 -7.1250 0.0000 -0.0000 -41.9301 66.3080 -23.2520 -0.0000 0.0000 0.0000 86.0355 -3.2992 12.0940 -13.4879 21.9979 -2.6332 0.0000 -0.0000 -11.8921 -12.0554 16.4902 -3.4691 7.1250 -0.0000 -0.0000 10.4752 -13.3407 7.9116
